<svg width="1000" height="1000" viewBox="0 0 1000 1000" fill="none" xmlns="http://www.w3.org/2000/svg">
<rect width="1000" height="1000" rx="500" fill="#7025BD"/>
<path d="M574.638 721.944C548.98 721.944 521.834 709.672 493.2 685.129C459.732 656.124 429.053 612.058 401.163 552.931C397.817 545.866 393.54 537.313 388.334 527.273C383.5 516.86 377.55 504.961 370.485 491.574H361.002C296.67 623.957 222.483 690.149 138.441 690.149C109.064 690.149 85.8222 680.667 68.7165 661.702C51.6107 642.737 43.0578 618.194 43.0578 588.073C43.0578 556.464 52.3544 528.574 70.9476 504.403C90.2846 478.372 115.757 465.357 147.366 465.357C156.291 465.357 164.658 467.96 172.467 473.166C180.648 478.372 184.738 485.066 184.738 493.247C184.738 495.106 184.18 496.408 183.065 497.152L177.487 485.996C174.14 479.302 166.145 475.955 153.502 475.955C126.355 475.955 104.044 489.9 86.566 517.79C71.3195 541.961 63.6963 568.364 63.6963 596.997C63.6963 621.912 69.4602 641.993 80.988 657.239C94.0033 674.717 112.411 683.456 136.21 683.456C182.321 683.456 227.131 652.405 270.639 590.304C282.539 573.198 293.509 556.278 303.549 539.544C313.961 522.438 323.258 505.519 331.439 488.785C325.861 487.669 320.283 486.368 314.705 484.88C309.499 483.021 304.293 481.161 299.087 479.302C279.378 520.579 256.508 558.137 230.478 591.977C193.291 641.063 160.009 665.606 130.632 665.606C126.913 665.606 125.054 664.305 125.054 661.702C125.054 659.842 126.913 658.541 130.632 657.797C134.722 657.053 141.23 655.566 150.155 653.335C176.557 642.923 204.633 617.45 234.382 576.917C245.166 562.042 255.393 546.238 265.061 529.504C275.101 512.77 284.584 495.106 293.509 476.513C267.106 464.242 253.905 450.854 253.905 436.352C253.905 428.914 257.624 422.221 265.061 416.271C272.87 410.321 280.493 407.346 287.931 407.346C297.227 407.346 307.454 411.251 318.61 419.06L330.323 387.266C321.77 375.366 317.494 363.28 317.494 351.009C317.494 336.506 321.213 329.255 328.65 329.255C333.856 329.255 338.504 334.647 342.595 345.431C347.429 327.953 351.148 311.033 353.751 294.671C356.726 277.937 358.957 261.761 360.444 246.143C324.373 247.63 289.79 253.766 256.694 264.55C237.357 270.872 220.065 278.495 204.819 287.42C189.572 295.973 176.557 306.013 165.773 317.541C150.899 332.416 143.461 349.149 143.461 367.743C143.461 398.607 160.195 420.733 193.663 434.121C196.266 434.864 199.427 435.794 203.146 436.91C206.864 438.025 211.327 439.141 216.533 440.256C218.764 440.628 219.879 441.558 219.879 443.045C219.879 444.533 218.392 445.276 215.417 445.276H214.301C202.774 445.276 191.618 442.673 180.834 437.467C170.05 432.261 159.451 425.382 149.039 416.829C127.471 398.607 116.687 377.969 116.687 354.913C116.687 338.551 123.381 323.491 136.768 309.732C159.823 286.676 194.965 268.455 242.191 255.068C279.75 244.284 319.539 238.148 361.56 236.66V198.73C361.56 195.755 362.675 194.268 364.907 194.268C366.022 194.268 366.58 195.197 366.58 197.057C368.439 207.841 368.997 220.856 368.253 236.103H395.028C410.646 236.103 425.707 236.846 440.209 238.334C454.712 239.821 468.843 242.052 482.602 245.027C499.708 248.746 515.326 253.394 529.457 258.972C543.588 264.55 556.417 271.43 567.945 279.611C597.694 300.435 612.569 325.722 612.569 355.471C612.569 384.477 598.252 410.507 569.618 433.563C547.306 451.412 519.602 465.357 486.506 475.398C471.26 480.232 455.084 483.95 437.978 486.553C420.872 489.157 403.023 490.83 384.43 491.574L459.732 593.65C477.21 617.078 493.014 636.229 507.145 651.104C521.276 665.978 533.175 676.762 542.844 683.456C562.553 696.843 579.101 703.537 592.488 703.537C613.684 703.537 624.282 689.406 624.282 661.144C624.282 635.857 616.287 612.244 600.297 590.304C599.181 588.444 598.624 587.329 598.624 586.957C598.624 585.841 599.181 585.284 600.297 585.284C602.156 585.284 604.202 586.585 606.433 589.188C624.654 610.756 633.765 633.998 633.765 658.913C633.765 676.762 628.373 691.637 617.589 703.537C606.805 715.808 592.488 721.944 574.638 721.944ZM374.389 478.187C414.551 478.187 450.807 473.91 483.16 465.357C510.306 457.548 532.618 446.578 550.095 432.447C572.035 414.598 583.005 393.401 583.005 368.858C583.005 341.34 570.176 316.797 544.517 295.229C523.321 277.751 497.662 264.922 467.541 256.741C453.41 252.651 438.908 249.862 424.033 248.374C409.159 246.515 394.098 245.585 378.852 245.585H367.696C366.952 260.46 365.093 276.078 362.118 292.44C359.143 308.43 355.238 325.164 350.404 342.642C356.726 338.551 361.746 336.506 365.464 336.506C369.183 336.506 371.042 338.551 371.042 342.642C371.042 350.079 367.138 358.632 359.329 368.3C355.61 373.135 351.705 377.225 347.615 380.572C343.896 383.919 340.178 386.708 336.459 388.939C334.6 394.517 332.554 400.095 330.323 405.673C328.464 411.251 326.233 417.015 323.63 422.965C327.72 426.311 331.997 430.03 336.459 434.121C340.921 438.211 345.384 442.859 349.846 448.065C361.746 418.688 371.786 387.823 379.967 355.471C381.083 350.265 382.384 343.757 383.872 335.948C385.731 327.767 387.962 318.471 390.565 308.058C393.912 296.531 401.535 290.767 413.435 290.767C420.5 290.767 424.033 293.556 424.033 299.134C424.033 300.993 423.661 304.154 422.918 308.616C422.174 313.079 421.058 318.842 419.571 325.908C413.993 350.079 406.927 374.436 398.374 398.979C390.193 423.151 380.711 447.694 369.927 472.609L374.389 478.187ZM299.087 465.357C302.062 459.035 304.851 452.528 307.454 445.834C310.428 439.141 313.217 432.447 315.821 425.754C305.036 418.316 295.74 414.598 287.931 414.598C277.147 414.598 271.755 419.99 271.755 430.774C271.755 444.533 280.865 456.061 299.087 465.357ZM337.017 476.513C338.876 473.166 340.55 469.82 342.037 466.473C343.524 463.126 345.012 459.779 346.499 456.432C338.318 446.02 329.765 437.281 320.841 430.216C318.238 436.538 315.635 442.859 313.032 449.181C310.428 455.503 307.64 461.824 304.665 468.146C314.333 472.237 325.117 475.026 337.017 476.513ZM742.357 660.586C704.798 660.586 673.376 653.149 648.089 638.274C616.48 620.053 600.676 593.65 600.676 559.067C600.676 524.112 616.294 493.061 647.531 465.915C676.908 439.884 709.447 426.869 745.146 426.869C760.392 426.869 768.015 428.357 768.015 431.332C768.015 432.819 762.437 433.377 751.281 433.005C715.21 433.005 685.275 443.789 661.476 465.357C636.189 488.413 623.546 517.418 623.546 552.374C623.546 583.61 633.958 608.525 654.782 627.118C675.607 645.712 702.009 655.008 733.99 655.008C760.764 655.008 790.885 648.501 824.353 635.485C882.735 611.686 911.927 575.057 911.927 525.599C911.927 496.594 898.54 471.865 871.765 451.412L797.578 403.442C771.176 383.733 757.975 361.793 757.975 337.622C757.975 320.144 764.297 304.526 776.94 290.767C765.04 291.882 755.186 297.646 747.377 308.058C739.568 318.099 735.663 329.255 735.663 341.526C735.663 367.557 747.563 390.241 771.362 409.577L839.971 456.432C865.258 475.769 879.203 498.081 881.806 523.368C889.243 515.931 895.007 512.212 899.098 512.212C902.072 512.212 903.56 514.443 903.56 518.906C903.56 531.921 894.449 545.866 876.228 560.74C868.047 582.309 851.685 601.832 827.142 619.309C803.342 636.415 779.729 644.968 756.301 644.968C754.442 644.968 753.512 644.41 753.512 643.294C753.512 641.063 755 639.948 757.975 639.948L779.171 636.601C796.649 631.767 813.197 622.842 828.815 609.827C844.433 596.439 855.961 581.565 863.398 565.203C855.961 556.65 852.243 546.61 852.243 535.082C852.243 522.438 855.403 516.117 861.725 516.117C864.7 516.117 867.489 517.418 870.092 520.021C868.605 508.122 864.328 496.78 857.263 485.996C850.569 475.212 840.901 465.543 828.257 456.99L762.437 411.809C739.382 392.1 727.854 368.858 727.854 342.084C727.854 327.209 732.688 314.38 742.357 303.596C752.397 292.44 764.854 286.862 779.729 286.862H780.845C808.363 260.46 845.363 247.259 891.846 247.259C932.008 247.259 959.897 256.369 975.516 274.591C981.094 280.54 983.883 287.234 983.883 294.671C983.883 307.315 975.702 316.797 959.34 323.119C947.812 327.581 934.239 329.813 918.62 329.813C911.183 329.813 903.374 329.255 895.193 328.139C887.012 327.024 878.273 325.536 868.976 323.677C847.78 318.471 832.534 312.335 823.237 305.269C822.493 304.526 822.122 303.968 822.122 303.596C822.122 302.48 822.679 301.923 823.795 301.923C824.911 301.923 825.654 302.109 826.026 302.48C847.966 316.611 878.273 323.677 916.947 323.677C929.219 323.677 940.374 321.631 950.415 317.541C963.43 312.335 969.938 304.526 969.938 294.114C969.938 279.983 959.711 269.384 939.259 262.319C923.641 257.113 907.836 254.51 891.846 254.51C843.132 254.51 809.85 270.128 792 301.365C786.051 311.033 783.076 321.631 783.076 333.159C783.076 356.215 796.277 377.039 822.679 395.633L896.309 442.488C922.711 464.428 935.912 491.388 935.912 523.368C935.912 566.504 913.6 601.274 868.976 627.676C831.418 649.616 789.212 660.586 742.357 660.586Z" fill="white"/>
</svg>
