<svg width="1000" height="1000" viewBox="0 0 1000 1000" fill="none"
    xmlns="http://www.w3.org/2000/svg">
    <rect width="1000" height="1000" rx="500" fill="#7025BD" />
    <path
        d="M579.873 546.056C569.089 564.278 556.26 582.313 541.385 600.163C526.883 618.012 511.636 632.887 495.646 644.786C489.696 648.877 482.073 652.595 472.776 655.942C463.852 658.917 454.555 660.405 444.886 660.405C437.077 660.405 429.826 659.103 423.132 656.5C416.811 653.525 411.605 649.063 407.514 643.113C403.424 636.419 400.821 628.424 399.705 619.128C398.961 609.459 398.589 601.65 398.589 595.7C398.589 568.554 394.685 548.101 386.876 534.342C379.438 520.212 371.443 511.659 362.89 508.684C355.825 523.187 347.272 538.991 337.232 556.097C327.191 572.83 315.664 589.378 302.648 605.74C290.005 622.103 275.874 637.163 260.256 650.922C245.009 664.309 228.461 675.093 210.612 683.274C193.134 691.455 174.541 695.546 154.832 695.546C142.189 695.546 132.706 692.199 126.384 685.505C119.691 678.812 116.344 671.189 116.344 662.636C116.344 654.827 119.133 647.203 124.711 639.766C129.917 632.329 137.726 626.937 148.138 623.59C148.882 623.218 149.998 623.032 151.485 623.032C154.832 623.032 156.505 624.148 156.505 626.379C156.505 628.982 154.46 630.841 150.37 631.957C144.048 633.444 138.842 637.349 134.751 643.671C130.661 649.621 128.616 656.128 128.616 663.194C128.616 669.143 130.475 674.535 134.194 679.37C138.284 684.576 144.792 687.179 153.716 687.179C169.707 687.179 184.953 682.159 199.456 672.118C214.33 662.45 228.089 649.806 240.733 634.188C253.748 618.198 265.834 601.092 276.99 582.871C288.146 564.649 298.186 546.986 307.111 529.88C316.035 512.402 323.845 497.528 330.538 485.256C351.363 446.582 371.257 415.16 390.222 390.989C409.559 366.446 426.665 347.852 441.54 335.209C434.102 332.606 425.178 330.375 414.765 328.515C404.353 326.656 394.313 325.726 384.644 325.726C350.805 325.726 320.684 331.49 294.281 343.018C268.251 354.174 246.311 368.491 228.461 385.968C210.612 403.446 197.039 421.853 187.742 441.19C178.445 460.527 173.797 478.377 173.797 494.739C173.797 507.382 176.586 518.166 182.164 527.091C188.114 535.644 196.853 541.222 208.381 543.825C209.496 544.197 211.355 544.383 213.959 544.383C221.024 544.383 229.577 542.338 239.617 538.247C250.029 534.157 260.256 528.021 270.296 519.84C280.708 511.287 289.261 500.689 295.955 488.045C306.367 468.708 311.573 451.974 311.573 437.844C311.573 429.291 309.714 422.597 305.995 417.763C302.648 412.929 297.442 410.512 290.377 410.512C281.452 410.512 273.457 412.929 266.391 417.763C259.326 422.597 253.562 428.547 249.1 435.612C245.009 442.306 242.22 448.442 240.733 454.02C240.361 455.135 240.175 456.623 240.175 458.482C240.175 463.688 242.406 466.291 246.869 466.291C249.1 466.291 250.773 465.919 251.889 465.176C252.632 464.804 253.376 464.618 254.12 464.618C255.979 464.618 256.909 465.547 256.909 467.407C256.909 468.894 256.165 470.382 254.678 471.869C252.075 473.729 248.728 474.658 244.637 474.658C239.803 474.658 235.713 473.171 232.366 470.196C229.391 466.849 227.903 462.758 227.903 457.924C227.903 456.437 227.903 455.135 227.903 454.02C228.275 452.904 228.647 451.603 229.019 450.115C232.738 437.844 240.547 427.059 252.447 417.763C264.718 408.466 278.291 403.818 293.166 403.818C305.065 403.818 313.804 407.537 319.382 414.974C325.332 422.411 328.307 431.708 328.307 442.864C328.307 454.02 325.518 466.291 319.94 479.678C314.362 492.694 306.181 505.151 295.397 517.051C284.613 528.95 271.598 538.619 256.351 546.056C241.105 553.493 223.813 557.212 204.476 557.212C186.626 557.212 172.31 551.82 161.526 541.036C151.113 530.252 145.907 515.935 145.907 498.086C145.907 488.045 147.581 477.261 150.927 465.733C154.646 453.834 160.41 441.562 168.219 428.919C179.747 409.954 193.878 393.592 210.612 379.833C227.718 366.074 246.125 354.732 265.834 345.807C285.542 336.882 305.437 330.375 325.518 326.284C345.971 321.822 365.122 319.591 382.971 319.591C394.871 319.591 406.584 320.148 418.112 321.264C430.012 322.38 441.168 324.611 451.58 327.958C463.108 319.405 474.636 313.827 486.163 311.224C497.691 308.249 507.732 306.761 516.285 306.761C518.516 306.761 520.747 306.761 522.978 306.761C525.209 306.761 527.069 306.947 528.556 307.319C531.531 307.691 533.576 308.621 534.692 310.108C536.179 311.224 536.923 312.339 536.923 313.455C536.923 315.686 535.064 316.802 531.345 316.802C529.486 316.43 527.626 316.244 525.767 316.244C523.908 316.244 522.048 316.244 520.189 316.244C518.702 316.244 517.028 316.244 515.169 316.244C513.31 316.244 511.264 316.616 509.033 317.359C504.943 318.103 500.108 319.777 494.53 322.38C489.324 324.983 483.375 329.073 476.681 334.651C490.44 342.088 502.34 352.129 512.38 364.772C522.42 377.044 527.44 391.546 527.44 408.28C527.44 414.974 526.697 421.296 525.209 427.245C521.863 441.748 514.983 454.02 504.571 464.06C494.53 473.729 482.631 481.538 468.872 487.488C455.485 493.437 442.098 497.9 428.71 500.875C415.695 503.85 404.353 505.709 394.685 506.453C405.469 512.031 414.022 520.955 420.343 533.227C426.665 545.127 431.313 557.956 434.288 571.715C437.263 585.474 438.937 597.374 439.309 607.414C439.68 611.133 440.052 614.851 440.424 618.57C440.796 621.917 441.354 625.077 442.098 628.052C444.701 639.952 450.279 645.902 458.831 645.902C462.922 645.902 467.384 644.786 472.219 642.555C477.425 639.952 482.631 636.977 487.837 633.63C503.083 623.962 518.144 610.761 533.018 594.027C547.893 576.921 560.722 558.886 571.506 539.92C572.994 538.433 574.481 537.689 575.969 537.689C577.828 537.689 579.13 538.619 579.873 540.478C580.989 542.338 580.989 544.197 579.873 546.056ZM485.048 431.708C488.767 420.18 490.626 409.024 490.626 398.24C490.626 386.34 488.209 376.114 483.374 367.561C478.912 359.008 472.59 351.757 464.409 345.807C453.253 357.335 440.424 373.511 425.921 394.335C411.791 415.16 395.8 443.05 377.951 478.005C376.463 480.98 374.79 484.327 372.931 488.045C371.443 491.392 369.77 494.739 367.911 498.086C377.579 497.714 388.177 496.412 399.705 494.181C411.605 491.95 423.318 488.417 434.846 483.583C446.374 478.377 456.6 471.683 465.525 463.502C474.822 454.949 481.329 444.351 485.048 431.708ZM661.508 736.823C645.518 731.617 633.804 723.808 626.367 713.395C618.929 702.983 614.467 689.782 612.979 673.792C593.271 668.214 577.28 659.847 565.009 648.691C552.737 637.163 543.813 624.148 538.235 609.645C533.029 594.77 530.426 579.338 530.426 563.348C530.426 545.498 533.772 528.764 540.466 513.146C547.531 497.528 557.014 483.769 568.914 471.869C580.813 459.598 594.2 450.115 609.075 443.422C623.949 436.356 639.382 432.823 655.372 432.823C669.875 432.823 682.704 435.055 693.86 439.517C705.016 443.607 714.127 449 721.192 455.693C733.835 442.678 746.293 430.406 758.565 418.878C770.836 407.351 782.178 395.823 792.59 384.295C790.359 377.601 788.128 370.35 785.897 362.541C784.037 354.732 783.108 346.551 783.108 337.998C783.108 323.123 787.57 311.781 796.495 303.972C805.419 296.163 814.158 292.259 822.711 292.259C829.033 292.259 834.239 294.118 838.329 297.837C842.792 301.555 845.023 307.319 845.023 315.128C845.023 322.937 842.42 332.048 837.214 342.46C831.264 354.732 823.455 366.446 813.786 377.602C816.761 384.295 820.666 393.22 825.5 404.376C830.334 415.16 835.169 427.059 840.003 440.075C845.209 452.718 849.485 465.547 852.832 478.563C856.179 491.206 857.852 502.92 857.852 513.704C857.852 538.991 852.274 562.046 841.118 582.871C830.334 603.323 815.646 620.987 797.053 635.862C778.459 650.364 757.449 661.52 734.021 669.329C710.966 677.138 687.352 681.043 663.181 681.043C650.91 681.043 638.824 679.927 626.924 677.696C629.156 692.571 633.804 703.913 640.869 711.722C648.307 719.903 655.558 725.109 662.623 727.34C668.201 728.828 670.99 731.059 670.99 734.034C670.99 737.752 667.83 738.682 661.508 736.823ZM809.324 364.214C816.018 355.29 821.781 345.993 826.616 336.325C829.219 331.118 830.892 326.656 831.636 322.937C832.752 318.847 833.309 315.5 833.309 312.897C833.309 306.203 831.078 302.857 826.616 302.857C822.897 302.857 818.807 305.832 814.344 311.781C808.023 320.334 804.862 330.561 804.862 342.46C804.862 349.898 806.349 357.149 809.324 364.214ZM657.603 671.561C678.8 671.561 699.438 666.354 719.519 655.942C739.599 645.53 757.263 631.957 772.509 615.223C787.756 598.489 798.354 580.826 804.304 562.232C810.997 542.152 814.344 520.769 814.344 498.086C814.344 481.724 812.671 464.99 809.324 447.884C806.349 430.778 802.073 413.858 796.495 397.124C786.826 407.537 776.228 418.135 764.7 428.919C753.544 439.703 742.017 451.231 730.117 463.502C738.298 471.683 744.248 480.422 747.966 489.719C751.685 499.015 753.544 508.498 753.544 518.166C753.544 531.553 750.198 544.383 743.504 556.654C736.81 568.554 727.328 578.222 715.056 585.66C703.157 593.097 689.026 596.816 672.664 596.816C667.83 596.816 662.995 596.444 658.161 595.7C653.327 594.956 648.307 593.841 643.101 592.353C638.638 602.766 634.734 615.037 631.387 629.168C628.04 643.299 626.181 655.942 625.809 667.098C631.015 668.586 636.221 669.701 641.427 670.445C647.005 671.189 652.397 671.561 657.603 671.561ZM612.979 663.194C613.723 650.922 615.768 638.093 619.115 624.706C622.834 611.318 626.924 598.861 631.387 587.333C624.321 583.243 618.929 578.037 615.211 571.715C611.492 565.393 609.633 559.071 609.633 552.75C609.633 540.478 614.653 531.368 624.693 525.418C626.553 524.302 628.412 523.744 630.271 523.744C633.246 523.744 634.734 524.86 634.734 527.091C634.734 528.95 633.432 531.182 630.829 533.785C625.251 538.619 622.462 544.569 622.462 551.634C622.462 561.303 627.11 569.112 636.407 575.062C646.075 553.122 657.975 532.669 672.106 513.704C686.609 494.367 700.74 477.261 714.499 462.387C706.689 456.437 698.694 452.532 690.513 450.673C682.704 448.442 674.895 447.326 667.086 447.326C653.699 447.326 640.869 450.859 628.598 457.924C616.698 464.99 605.914 474.286 596.246 485.814C586.577 497.342 578.768 509.985 572.818 523.744C566.868 537.131 563.336 550.147 562.22 562.79C562.22 564.278 562.034 565.951 561.662 567.81C561.662 569.298 561.662 570.971 561.662 572.83C561.662 584.73 563.336 596.816 566.682 609.087C570.029 620.987 575.421 631.771 582.858 641.439C590.668 651.108 600.708 658.359 612.979 663.194ZM663.739 583.429C676.382 583.429 688.096 579.896 698.88 572.83C710.036 565.393 719.147 555.911 726.212 544.383C733.278 532.855 736.81 520.769 736.81 508.126C736.81 501.804 735.695 495.483 733.464 489.161C731.604 482.839 728.258 476.703 723.423 470.754C710.036 485.256 696.463 501.804 682.704 520.398C668.945 538.991 657.231 559.257 647.563 581.197C652.025 582.685 657.417 583.429 663.739 583.429Z"
        fill="white" />
</svg>