<svg width="1000" height="1000" viewBox="0 0 1000 1000" fill="none"
    xmlns="http://www.w3.org/2000/svg">
    <rect width="1000" height="1000" rx="500" fill="#7025BD" />
    <path
        d="M564.325 690.813C542.298 690.813 518.993 680.278 494.412 659.208C465.681 634.308 439.344 596.479 415.402 545.721C412.529 539.655 408.858 532.313 404.388 523.693C400.238 514.755 395.13 504.539 389.065 493.047H380.924C325.697 606.694 262.01 663.518 189.863 663.518C164.643 663.518 144.691 655.378 130.006 639.097C115.321 622.816 107.979 601.746 107.979 575.888C107.979 548.753 115.96 524.811 131.921 504.06C148.522 481.714 170.389 470.541 197.524 470.541C205.186 470.541 212.369 472.775 219.073 477.245C226.096 481.714 229.607 487.46 229.607 494.483C229.607 496.08 229.128 497.197 228.171 497.835L223.382 488.258C220.509 482.512 213.646 479.639 202.792 479.639C179.487 479.639 160.333 491.61 145.329 515.553C132.241 536.303 125.696 558.969 125.696 583.55C125.696 604.939 130.645 622.177 140.541 635.266C151.714 650.27 167.516 657.772 187.947 657.772C227.532 657.772 266 631.116 303.35 577.804C313.566 563.119 322.983 548.594 331.603 534.228C340.541 519.543 348.522 505.018 355.545 490.653C350.757 489.695 345.968 488.578 341.18 487.301C336.71 485.704 332.241 484.108 327.772 482.512C310.852 517.947 291.22 550.19 268.873 579.24C236.95 621.379 208.378 642.449 183.159 642.449C179.966 642.449 178.37 641.331 178.37 639.097C178.37 637.501 179.966 636.383 183.159 635.745C186.67 635.106 192.257 633.829 199.918 631.914C222.584 622.975 246.686 601.108 272.225 566.311C281.483 553.542 290.262 539.974 298.562 525.609C307.181 511.243 315.322 496.08 322.983 480.118C300.318 469.583 288.985 458.091 288.985 445.64C288.985 439.256 292.177 433.51 298.562 428.402C305.266 423.294 311.81 420.74 318.195 420.74C326.176 420.74 334.955 424.092 344.532 430.796L354.588 403.502C347.245 393.286 343.574 382.911 343.574 372.376C343.574 359.926 346.766 353.701 353.151 353.701C357.62 353.701 361.611 358.33 365.122 367.588C369.272 352.584 372.465 338.058 374.699 324.012C377.253 309.647 379.169 295.76 380.446 282.352C349.48 283.629 319.791 288.896 291.379 298.154C274.779 303.581 259.935 310.125 246.846 317.787C233.757 325.129 222.584 333.749 213.326 343.645C200.557 356.414 194.172 370.78 194.172 386.742C194.172 413.238 208.538 432.233 237.269 443.725C239.504 444.364 242.217 445.162 245.409 446.119C248.602 447.077 252.433 448.035 256.902 448.992C258.817 449.312 259.775 450.11 259.775 451.387C259.775 452.664 258.498 453.302 255.944 453.302H254.986C245.09 453.302 235.513 451.067 226.255 446.598C216.997 442.129 207.899 436.223 198.961 428.881C180.445 413.238 171.187 395.521 171.187 375.728C171.187 361.682 176.934 348.753 188.426 336.941C208.219 317.149 238.386 301.506 278.929 290.014C311.172 280.756 345.33 275.488 381.403 274.211V241.65C381.403 239.096 382.361 237.819 384.276 237.819C385.234 237.819 385.713 238.617 385.713 240.213C387.309 249.471 387.788 260.644 387.15 273.733H410.134C423.542 273.733 436.471 274.371 448.921 275.648C461.372 276.925 473.503 278.84 485.314 281.394C499.999 284.587 513.407 288.577 525.538 293.366C537.669 298.154 548.682 304.06 558.579 311.083C584.117 328.96 596.887 350.668 596.887 376.207C596.887 401.107 584.596 423.454 560.015 443.246C540.861 458.569 517.078 470.541 488.666 479.16C475.578 483.31 461.691 486.503 447.006 488.737C432.321 490.972 416.998 492.408 401.036 493.047L465.681 580.677C480.685 600.789 494.253 617.229 506.384 629.998C518.515 642.768 528.73 652.026 537.03 657.772C553.95 669.264 568.156 675.011 579.648 675.011C597.844 675.011 606.943 662.88 606.943 638.618C606.943 616.91 600.079 596.638 586.352 577.804C585.394 576.207 584.915 575.25 584.915 574.931C584.915 573.973 585.394 573.494 586.352 573.494C587.948 573.494 589.704 574.611 591.619 576.846C607.262 595.362 615.083 615.314 615.083 636.702C615.083 652.026 610.454 664.795 601.196 675.011C591.939 685.545 579.648 690.813 564.325 690.813ZM392.417 481.554C426.894 481.554 458.02 477.883 485.793 470.541C509.097 463.837 528.251 454.419 543.255 442.289C562.09 426.965 571.508 408.769 571.508 387.699C571.508 364.076 560.494 343.007 538.467 324.491C520.27 309.487 498.243 298.473 472.385 291.45C460.254 287.939 447.804 285.544 435.035 284.267C422.265 282.671 409.336 281.873 396.248 281.873H386.671C386.032 294.642 384.436 308.05 381.882 322.097C379.328 335.824 375.976 350.189 371.826 365.193C377.253 361.682 381.563 359.926 384.755 359.926C387.948 359.926 389.544 361.682 389.544 365.193C389.544 371.578 386.192 378.92 379.488 387.221C376.296 391.371 372.944 394.882 369.432 397.755C366.24 400.628 363.047 403.023 359.855 404.938C358.259 409.727 356.503 414.515 354.588 419.304C352.991 424.092 351.076 429.04 348.841 434.148C352.353 437.021 356.024 440.213 359.855 443.725C363.686 447.237 367.517 451.227 371.347 455.696C381.563 430.477 390.182 403.98 397.205 376.207C398.163 371.738 399.28 366.151 400.557 359.447C402.154 352.424 404.069 344.443 406.304 335.505C409.177 325.608 415.721 320.66 425.937 320.66C432.002 320.66 435.035 323.054 435.035 327.843C435.035 329.439 434.716 332.153 434.077 335.983C433.439 339.814 432.481 344.762 431.204 350.828C426.415 371.578 420.35 392.488 413.008 413.557C405.984 434.308 397.844 455.377 388.586 476.766L392.417 481.554ZM327.772 470.541C330.326 465.114 332.72 459.527 334.955 453.781C337.509 448.035 339.903 442.289 342.137 436.542C332.88 430.158 324.899 426.965 318.195 426.965C308.937 426.965 304.308 431.594 304.308 440.852C304.308 452.664 312.129 462.56 327.772 470.541ZM360.334 480.118C361.93 477.245 363.367 474.372 364.644 471.498C365.92 468.625 367.197 465.752 368.474 462.879C361.451 453.941 354.109 446.439 346.447 440.373C344.212 445.8 341.978 451.227 339.743 456.654C337.509 462.081 335.114 467.508 332.56 472.935C340.861 476.447 350.118 478.841 360.334 480.118ZM708.306 638.139C676.063 638.139 649.088 631.754 627.38 618.985C600.245 603.342 586.677 580.677 586.677 550.988C586.677 520.98 600.085 494.324 626.901 471.02C652.121 448.673 680.054 437.5 710.7 437.5C723.789 437.5 730.333 438.777 730.333 441.331C730.333 442.608 725.544 443.087 715.967 442.767C685.002 442.767 659.303 452.025 638.872 470.541C617.164 490.333 606.31 515.234 606.31 545.242C606.31 572.057 615.249 593.446 633.126 609.408C651.003 625.37 673.669 633.35 701.123 633.35C724.108 633.35 749.966 627.764 778.697 616.591C828.817 596.16 853.877 564.715 853.877 522.257C853.877 497.356 842.384 476.127 819.399 458.569L755.712 417.388C733.047 400.469 721.714 381.634 721.714 360.884C721.714 345.88 727.141 332.472 737.995 320.66C727.779 321.618 719.319 326.566 712.615 335.505C705.912 344.124 702.56 353.701 702.56 364.236C702.56 386.582 712.775 406.055 733.206 422.656L792.105 462.879C813.813 479.479 825.784 498.633 828.019 520.341C834.404 513.957 839.352 510.764 842.863 510.764C845.417 510.764 846.694 512.68 846.694 516.511C846.694 527.684 838.873 539.655 823.23 552.424C816.207 570.94 802.161 587.7 781.091 602.704C760.66 617.389 740.389 624.731 720.277 624.731C718.681 624.731 717.883 624.252 717.883 623.295C717.883 621.379 719.16 620.421 721.714 620.421L739.91 617.548C754.914 613.398 769.12 605.737 782.528 594.563C795.936 583.071 805.832 570.302 812.217 556.255C805.832 548.913 802.64 540.294 802.64 530.397C802.64 519.543 805.353 514.116 810.78 514.116C813.334 514.116 815.728 515.234 817.963 517.468C816.686 507.253 813.015 497.516 806.949 488.258C801.203 479.001 792.903 470.7 782.049 463.358L725.544 424.571C705.752 407.652 695.856 387.699 695.856 364.714C695.856 351.945 700.006 340.932 708.306 331.674C716.925 322.097 727.62 317.308 740.389 317.308H741.347C764.97 294.642 796.734 283.31 836.638 283.31C871.115 283.31 895.058 291.131 908.466 306.773C913.254 311.881 915.649 317.627 915.649 324.012C915.649 334.866 908.626 343.007 894.579 348.434C884.683 352.264 873.031 354.18 859.623 354.18C853.238 354.18 846.534 353.701 839.511 352.743C832.488 351.785 824.986 350.509 817.005 348.912C798.809 344.443 785.72 339.176 777.739 333.11C777.101 332.472 776.782 331.993 776.782 331.674C776.782 330.716 777.261 330.237 778.218 330.237C779.176 330.237 779.814 330.397 780.134 330.716C798.968 342.847 824.986 348.912 858.186 348.912C868.721 348.912 878.298 347.157 886.918 343.645C898.091 339.176 903.677 332.472 903.677 323.533C903.677 311.402 894.898 302.304 877.341 296.239C863.933 291.769 850.365 289.535 836.638 289.535C794.818 289.535 766.247 302.943 750.924 329.758C745.816 338.058 743.262 347.157 743.262 357.053C743.262 376.845 754.595 394.723 777.261 410.684L840.469 450.908C863.135 469.743 874.467 492.887 874.467 520.341C874.467 557.373 855.313 587.221 817.005 609.887C784.763 628.722 748.529 638.139 708.306 638.139Z"
        fill="white" />
</svg>