<svg width="1000" height="1001" viewBox="0 0 1000 1001" fill="none" xmlns="http://www.w3.org/2000/svg">
<rect y="0.5" width="1000" height="1000" rx="500" fill="#7025BD"/>
<path d="M480.24 482.026C461.747 501.598 445.026 517.24 430.077 528.953C415.128 540.665 397.559 551.839 377.371 562.472L346.625 578.885L362.807 587.207C375.598 593.68 394.477 601.771 419.443 611.48C444.563 621.035 464.598 627.893 479.547 632.054C498.194 637.139 518.691 640.376 541.037 641.763C556.448 642.687 566.003 643.689 569.702 644.768C573.401 645.693 575.25 647.773 575.25 651.009C575.25 654.246 573.709 656.326 570.627 657.251C567.544 658.022 559.299 658.638 545.892 659.1C523.083 660.025 495.035 655.633 461.747 645.924C428.459 636.215 393.167 622.113 355.872 603.62L323.046 587.207L302.01 593.218C288.294 597.07 277.583 598.997 269.878 598.997C266.949 598.997 264.021 599.459 261.093 600.384C258.319 601.308 256.47 602.387 255.545 603.62C253.079 606.856 248.61 623.346 242.137 653.09C235.819 682.679 231.581 706.49 229.423 724.521C224.338 767.826 224.877 793.64 231.041 801.962C235.202 807.51 236.975 812.133 236.358 815.832C235.742 819.531 232.814 821.38 227.574 821.38C224.029 821.38 221.255 820.455 219.252 818.606C217.248 816.757 215.245 813.443 213.242 808.666C208.156 796.799 206.923 774.145 209.543 740.702C212.317 707.414 218.25 671.892 227.343 634.134L235.665 598.997L226.88 593.68C221.949 590.444 219.252 585.82 218.79 579.81C218.327 573.645 220.022 567.635 223.875 561.779C227.882 555.922 233.276 551.607 240.057 548.833C245.297 546.676 248.995 543.439 251.153 539.124C253.311 534.655 254.389 528.182 254.389 519.706C254.389 513.542 258.088 500.365 265.485 480.177C271.188 465.228 283.902 426.006 303.628 362.512C318.731 312.58 329.904 276.441 337.147 254.095C340.692 242.228 341.462 236.218 339.459 236.064C337.764 236.064 334.99 240.687 331.137 249.934C325.743 263.495 319.27 265.807 311.719 256.869C309.561 253.941 310.255 248.932 313.799 241.843C317.344 234.6 325.743 221.654 338.997 203.007C347.627 190.832 354.408 182.741 359.339 178.734C364.425 174.573 368.509 173.802 371.591 176.422C373.441 178.118 374.674 179.659 375.29 181.046C376.061 182.279 376.061 185.207 375.29 189.83C374.519 194.453 373.209 199.693 371.36 205.549C369.665 211.252 366.66 220.961 362.345 234.677C353.406 262.263 344.005 292.546 334.142 325.525C324.433 358.351 319.887 375.149 320.503 375.92C321.428 376.228 328.748 366.134 342.464 345.637C356.334 325.14 378.989 299.018 410.427 267.271C429.537 248.007 443.639 234.6 452.731 227.048C461.978 219.342 471.61 213.024 481.627 208.092C525.549 186.671 556.757 191.679 575.25 223.118C580.644 232.211 583.187 247.853 582.878 270.045C582.57 292.083 579.488 311.578 573.632 328.531C554.83 385.09 523.7 436.255 480.24 482.026ZM297.387 575.186C298.003 574.57 297.618 573.645 296.231 572.412C294.844 571.025 292.686 569.638 289.758 568.251C286.83 566.864 283.748 565.709 280.511 564.784C274.809 563.089 270.186 563.166 266.641 565.015C263.251 566.71 261.556 569.793 261.556 574.262C261.556 577.806 262.403 579.887 264.098 580.503C265.948 580.966 270.802 580.58 278.662 579.347C289.758 577.96 296 576.573 297.387 575.186ZM327.207 562.935C331.676 563.243 345.623 557.387 369.048 545.366C413.124 522.711 452.885 489.5 488.331 445.733C523.777 401.965 547.356 356.887 559.068 310.5C564.616 288.924 566.697 270.276 565.31 254.557C563.923 238.838 559.145 227.356 550.977 220.113C545.429 215.181 536.876 213.178 525.318 214.103C513.759 214.873 501.816 218.341 489.487 224.505C463.442 237.759 431.31 266.809 393.09 311.655C354.87 356.502 325.05 400.347 303.628 443.19C298.08 453.978 291.453 471.315 283.748 495.202C276.196 519.09 272.42 534.27 272.42 540.742C272.42 541.975 273.037 543.054 274.27 543.979C275.657 544.904 277.121 545.366 278.662 545.366C282.977 545.366 290.991 548.217 302.703 553.919C315.032 559.929 323.2 562.935 327.207 562.935ZM759.259 172.261C779.294 182.741 791.16 197.073 794.859 215.259C798.558 233.444 794.012 254.865 781.22 279.523C773.361 294.626 759.876 314.121 740.766 338.009C721.81 361.896 710.252 373.839 706.091 373.839C704.087 373.839 702.469 373.3 701.236 372.221C700.158 371.143 699.695 369.601 699.849 367.598C699.849 364.516 702.161 359.584 706.784 352.803C711.408 345.868 721.348 332.769 736.605 313.505C753.865 291.467 765.732 271.432 772.205 253.401C778.677 235.216 779.14 220.729 773.592 209.942C766.965 196.996 755.407 188.751 738.917 185.207C722.427 181.662 704.781 183.512 685.979 190.755C665.174 198.923 641.595 213.794 615.242 235.37C588.889 256.946 569.625 277.057 557.45 295.705C549.436 308.034 543.041 318.59 538.263 327.375C533.64 336.159 529.941 344.944 527.167 353.728C524.547 362.512 523.16 370.372 523.006 377.307C523.006 384.242 524.239 392.025 526.705 400.655C529.325 409.285 532.946 417.838 537.57 426.315C542.193 434.637 548.357 444.654 556.063 456.366C563.152 467.154 576.098 482.719 594.899 503.062C613.855 523.405 629.96 539.124 643.213 550.22L659.857 564.09L696.844 532.42C719.807 512.694 735.68 499.749 744.465 493.584C753.249 487.42 759.336 485.031 762.727 486.418C769.662 489.038 768.814 494.586 760.184 503.062C756.794 506.607 751.862 510.845 745.389 515.776C733.06 525.331 717.572 538.277 698.925 554.613L675.114 576.111L695.688 597.841C708.48 611.094 717.11 621.959 721.579 630.436C726.048 638.758 728.283 648.235 728.283 658.869C728.283 665.958 727.435 671.352 725.74 675.051C724.045 678.595 719.807 683.758 713.026 690.539C697.615 705.95 674.96 719.82 645.063 732.149C615.319 744.478 587.425 751.413 561.38 752.954C548.126 753.879 539.573 754.033 535.72 753.417C531.867 752.8 528.169 750.72 524.624 747.175C519.384 741.935 516.765 737.543 516.765 733.999C516.765 724.752 523.16 711.652 535.951 694.7C548.897 677.748 571.628 652.551 604.146 619.108L644.138 577.498L593.975 526.872C573.632 506.376 559.068 490.81 550.284 480.177C541.499 469.389 533.717 457.83 526.936 445.501C518.922 430.861 513.066 418.994 509.367 409.902C505.823 400.655 503.973 391.023 503.819 381.006C503.665 370.988 505.206 361.356 508.443 352.11C511.833 342.709 517.304 330.457 524.855 315.354C532.407 300.559 539.188 289.001 545.198 280.679C551.363 272.357 560.455 262.263 572.476 250.396C609 214.026 643.676 188.982 676.501 175.267C709.327 161.551 736.913 160.549 759.259 172.261ZM661.938 592.524C659.318 592.524 641.749 609.091 609.232 642.225C576.868 675.205 557.065 696.781 549.822 706.952C541.654 718.202 537.878 725.831 538.494 729.838C539.111 733.844 544.273 735.848 553.983 735.848C564.462 735.848 579.103 733.459 597.904 728.682C615.319 724.212 633.273 717.663 651.766 709.032C670.414 700.402 684.9 691.926 695.226 683.604C701.853 678.21 706.014 673.972 707.709 670.89C709.558 667.808 710.483 663.415 710.483 657.713C710.483 649.083 708.557 641.686 704.704 635.521C700.08 628.74 692.298 619.879 681.356 608.937C670.568 597.995 664.095 592.524 661.938 592.524Z" fill="white"/>
</svg>
