<svg width="1000" height="1000" viewBox="0 0 1000 1000" fill="none"
    xmlns="http://www.w3.org/2000/svg">
    <rect width="1000" height="1000" rx="500" fill="#7025BD" />
    <path
        d="M458.758 355.055C458.758 355.787 458.392 356.702 457.66 357.799C457.294 358.531 451.988 368.777 441.743 388.536C430.399 409.759 400.578 465.195 352.277 554.843C406.432 534.718 454.916 504.713 497.727 464.829C540.539 424.578 561.945 389.268 561.945 358.897C561.945 342.431 553.895 328.892 537.795 318.281C521.695 307.669 497.361 302.364 464.795 302.364C432.229 302.364 397.101 309.316 359.413 323.221C322.089 336.759 289.157 353.043 260.616 372.07C232.075 391.097 208.291 410.674 189.263 430.799C169.87 450.924 160.173 467.39 160.173 480.197C160.173 494.468 171.7 501.603 194.752 501.603C217.439 501.603 243.418 494.102 272.691 479.099C302.33 463.731 328.859 443.423 352.277 418.175C356.302 413.418 358.864 411.04 359.961 411.04C362.523 411.04 363.803 412.32 363.803 414.882C363.803 415.614 362.523 418.175 359.961 422.566C347.886 440.862 320.992 462.45 279.278 487.332C237.93 511.848 203.717 524.107 176.639 524.107C149.196 524.107 135.474 515.508 135.474 498.31C135.474 482.941 146.452 463.182 168.406 439.032C189.995 414.516 217.073 390.732 249.639 367.679C282.205 344.627 320.077 324.867 363.255 308.401C406.432 291.935 446.134 283.702 482.359 283.702C518.95 283.702 545.845 289.557 563.043 301.266C580.24 312.609 588.839 327.429 588.839 345.724C588.839 377.559 568.531 413.784 527.915 454.4C487.665 495.016 438.998 527.583 381.916 552.099C418.873 552.465 449.61 568.565 474.126 600.399C498.642 631.868 511.083 668.459 511.449 710.173C511.449 715.296 510.534 717.857 508.705 717.857C505.777 717.857 503.765 714.564 502.667 707.977C501.569 701.757 500.289 695.536 498.825 689.316C497.361 683.095 492.787 672.118 485.103 656.384C477.785 640.65 469.003 626.745 458.758 614.67C448.878 602.595 434.425 591.617 415.397 581.738C396.37 571.858 374.964 566.918 351.179 566.918H345.142C318.796 614.853 296.659 654.554 278.729 686.023C276.533 690.779 272.508 694.439 266.654 697C260.799 699.561 256.225 700.842 252.932 700.842C250.005 700.842 248.541 699.927 248.541 698.098L316.052 575.151C301.415 578.81 286.413 581.555 271.045 583.384C264.458 583.384 261.165 582.287 261.165 580.091C261.165 576.066 263.178 573.871 267.203 573.505C284.035 572.407 302.33 569.297 322.089 564.174L432.412 363.288C433.51 360.361 436.803 357.982 442.292 356.153C447.78 353.957 452.354 352.86 456.013 352.86L458.758 355.055ZM785.583 439.032C771.312 439.032 764.177 432.811 764.177 420.37C764.177 401.343 774.789 383.413 796.011 366.581C817.234 349.749 842.482 336.028 871.755 325.416C869.194 314.805 862.607 306.755 851.996 301.266C841.385 295.411 828.212 292.484 812.477 292.484C797.109 292.484 781.009 295.411 764.177 301.266C747.711 307.121 731.977 315.537 716.974 326.514C702.338 337.125 690.263 351.396 680.749 369.326C671.601 386.889 667.027 406.283 667.027 427.506C667.027 434.824 672.516 456.23 683.493 491.723C694.471 527.217 699.959 556.673 699.959 580.091C699.959 585.946 699.228 594.362 697.764 605.339C711.669 603.875 721.731 603.144 727.952 603.144C763.445 603.144 781.192 612.474 781.192 631.136C781.192 637.722 779.179 643.211 775.154 647.602C771.129 651.993 764.36 657.116 754.846 662.97C751.919 661.141 750.455 659.494 750.455 658.03C750.455 656.567 751.187 655.286 752.651 654.188C763.628 647.968 769.117 641.747 769.117 635.527C769.117 623.086 754.663 616.865 725.756 616.865C715.145 616.865 704.899 617.597 695.02 619.061C688.799 642.479 677.09 664.434 659.892 684.925C643.06 705.05 624.216 721.333 603.359 733.774C582.502 746.581 561.462 756.461 540.239 763.413C519.382 770.365 500.903 773.842 484.803 773.842C459.921 773.842 447.48 766.523 447.48 751.887C447.48 731.396 460.287 710.722 485.901 689.865C511.515 669.008 541.885 651.627 577.013 637.722C612.507 623.452 647.268 613.389 681.298 607.534C682.762 597.289 683.493 589.056 683.493 582.835C683.493 567.101 677.639 542.585 665.93 509.287C654.586 475.623 648.915 446.716 648.915 422.566C648.915 398.416 658.428 374.448 677.456 350.664C696.483 326.514 718.987 308.035 744.967 295.228C771.312 282.422 796.194 276.018 819.613 276.018C856.57 276.018 876.878 291.569 880.537 322.672C901.028 316.085 914.933 312.792 922.251 312.792C929.569 312.792 933.411 313.158 933.777 313.89C934.509 314.256 934.875 316.268 934.875 319.928C934.875 323.587 933.228 325.965 929.935 327.063C913.469 327.795 897.186 330.173 881.086 334.198C880.354 363.837 869.194 388.719 847.605 408.844C826.016 428.969 805.342 439.032 785.583 439.032ZM468.886 738.165C468.886 748.777 479.497 754.082 500.72 754.082C530.359 754.082 563.474 743.471 600.065 722.248C617.995 712.002 634.095 698.098 648.366 680.534C663.002 662.604 673.065 642.845 678.554 621.256C647.451 626.379 616.166 634.612 584.697 645.955C553.595 657.299 526.517 671.386 503.465 688.218C480.412 704.684 468.886 721.333 468.886 738.165ZM781.741 417.077C781.741 424.03 785.4 427.506 792.718 427.506C806.623 427.506 823.272 418.175 842.665 399.513C862.424 380.486 872.487 359.629 872.853 336.942C847.239 344.993 825.65 356.153 808.087 370.423C790.523 384.694 781.741 400.245 781.741 417.077Z"
        fill="white" />
</svg>