<svg width="1000" height="1000" viewBox="0 0 1000 1000" fill="none"
    xmlns="http://www.w3.org/2000/svg">
    <rect width="1000" height="1000" rx="500" fill="#7025BD" />
    <path
        d="M541.055 767.403C539.567 767.403 537.336 766.846 534.361 765.73C438.42 731.519 370.927 672.764 331.881 589.466C329.278 584.26 327.047 578.868 325.187 573.29C323.328 567.712 321.469 562.506 319.61 557.672C311.429 558.416 303.433 559.159 295.624 559.903C287.815 560.275 280.006 560.461 272.197 560.461H258.252C235.94 641.527 203.03 690.427 159.522 707.161C151.713 710.136 143.532 712.553 134.979 714.413C126.426 716.272 117.315 717.202 107.647 717.202H105.973C92.2143 717.202 85.3348 711.624 85.3348 700.468C85.3348 691.543 88.1238 687.081 93.7017 687.081C94.4455 687.081 99.2797 690.427 108.204 697.121C117.129 703.815 125.868 707.161 134.421 707.161C169.004 707.161 202.1 657.517 233.709 558.23L211.955 554.883C193.361 613.637 174.954 653.241 156.733 673.694C154.873 675.553 153.2 676.483 151.713 676.483C150.597 676.483 150.039 675.553 150.039 673.694C150.039 672.206 150.783 670.533 152.27 668.673C160.823 658.633 169.376 643.944 177.929 624.607C186.482 605.27 194.849 581.285 203.03 552.652C176.256 545.214 156.733 533.872 144.461 518.626C136.652 507.842 132.748 496.314 132.748 484.043C132.748 469.54 139.999 453.922 154.502 437.188C169.004 420.454 182.206 412.087 194.105 412.087C196.708 412.087 198.196 412.645 198.568 413.76C198.196 413.76 197.824 413.946 197.452 414.318C166.215 429.193 150.597 447.6 150.597 469.54C150.597 480.696 154.316 491.666 161.753 502.45C171.421 516.953 186.668 528.852 207.492 538.149C210.467 526.993 213.256 515.837 215.859 504.681C218.462 493.153 221.065 481.625 223.668 470.098C221.437 472.329 218.648 474.746 215.301 477.349C212.327 479.952 208.794 482.741 204.703 485.716C198.01 481.254 194.663 474.374 194.663 465.077C194.663 461.359 196.708 456.711 200.799 451.133C204.889 445.183 208.422 442.208 211.397 442.208C214.744 454.479 219.392 461.359 225.342 462.846C227.201 455.409 228.689 448.344 229.804 441.65C231.292 434.585 232.407 428.263 233.151 422.685C235.382 405.951 237.056 390.333 238.171 375.83C239.659 361.327 240.402 347.754 240.402 335.111C240.402 329.905 240.216 324.884 239.845 320.05C239.845 315.216 239.659 310.568 239.287 306.105C220.694 313.914 205.633 320.05 194.105 324.513C182.577 328.975 174.768 331.95 170.678 333.437C145.019 342.362 122.521 346.825 103.184 346.825C87.9378 346.825 74.5507 342.362 63.0229 333.437C51.867 324.141 46.289 312.055 46.289 297.181C46.289 290.115 47.4046 283.05 49.6358 275.984C52.2388 268.547 55.7715 260.924 60.2339 253.115C62.0932 250.512 63.9526 249.21 65.8119 249.21C67.2993 249.21 68.0431 250.14 68.0431 251.999C68.0431 251.999 65.44 256.833 60.2339 266.502C57.6309 270.592 55.7715 274.869 54.6559 279.331C53.9122 283.422 53.5403 287.512 53.5403 291.603C53.5403 313.543 66.9275 324.513 93.7017 324.513C102.255 324.513 112.481 323.583 124.381 321.724C136.652 319.864 150.411 316.518 165.658 311.683L236.498 288.814C229.804 250.512 213.442 231.361 187.412 231.361C185.924 231.361 184.437 231.361 182.949 231.361C181.834 231.361 180.532 231.546 179.045 231.918C189.085 236.381 194.105 244.376 194.105 255.904C194.105 266.688 190.758 273.753 184.065 277.1C180.718 254.788 169.562 244.376 150.597 245.863C156.547 232.476 169.004 225.783 187.969 225.783C218.09 225.783 237.799 245.863 247.096 286.025C285.026 274.869 317.75 269.291 345.268 269.291C346.756 269.291 348.243 269.291 349.731 269.291C351.59 269.291 353.263 269.477 354.751 269.849C377.806 249.024 399.374 238.612 419.455 238.612C428.38 238.612 437.491 241.959 446.787 248.652C456.084 254.23 460.732 261.482 460.732 270.406C460.732 277.1 459.059 280.447 455.712 280.447C454.968 280.447 450.134 275.055 441.209 264.271C433.028 253.486 422.802 248.094 410.53 248.094C394.54 248.094 379.294 255.532 364.791 270.406C406.44 273.009 440.651 284.165 467.426 303.874C499.034 327.302 514.838 358.724 514.838 398.142C514.838 420.082 508.331 441.836 495.316 463.404C467.054 510.259 417.224 540.38 345.826 553.767C353.263 574.592 364.047 595.044 378.178 615.125C392.681 634.834 410.345 654.171 431.169 673.136C474.305 712.182 513.537 731.704 548.864 731.704C574.895 731.704 587.91 721.106 587.91 699.91C587.91 697.679 587.352 694.518 586.237 690.427C585.493 686.337 585.121 683.548 585.121 682.061C585.121 680.945 585.493 680.387 586.237 680.387C589.211 680.387 591.257 684.292 592.372 692.101C593.116 695.076 593.674 697.679 594.046 699.91C594.789 702.513 595.161 704.744 595.161 706.604C595.161 728.544 581.96 739.514 555.558 739.514H551.653C550.538 739.142 549.236 738.956 547.749 738.956C541.427 738.956 538.266 741.187 538.266 745.649C538.266 747.881 539.196 751.227 541.055 755.69C542.914 760.152 543.844 763.127 543.844 764.614C543.844 766.474 542.914 767.403 541.055 767.403ZM236.498 547.074C240.588 534.058 244.493 520.113 248.212 505.239C252.302 490.364 256.207 474.374 259.925 457.268C278.518 378.433 307.338 318.563 346.384 277.658C333.74 278.03 319.238 280.261 302.876 284.351C286.885 288.442 269.222 294.206 249.885 301.643C250.629 307.593 251.186 313.543 251.558 319.492C251.93 325.442 252.116 331.95 252.116 339.015C252.116 353.146 251.186 368.579 249.327 385.313C247.84 402.046 245.237 419.71 241.518 438.303C238.543 454.293 235.01 470.841 230.92 487.947C226.829 505.053 221.809 523.088 215.859 542.053L236.498 547.074ZM280.564 552.094C286.885 552.094 293.021 551.908 298.971 551.536C305.293 551.164 311.429 550.606 317.378 549.863C315.147 540.938 314.032 532.571 314.032 524.762C314.032 521.787 314.403 518.44 315.147 514.721C316.263 509.887 319.424 503.38 324.63 495.199C330.208 486.646 335.042 482.369 339.132 482.369C341.364 482.369 343.037 483.857 344.153 486.832C340.062 495.013 338.017 503.937 338.017 513.606C338.017 518.44 338.389 523.646 339.132 529.224C340.248 534.43 341.735 539.822 343.595 545.4C403.465 533.129 445.672 504.309 470.215 458.942C481.371 438.861 486.949 418.223 486.949 397.026C486.949 360.212 474.119 331.02 448.461 309.452C425.033 289.371 394.726 278.773 357.54 277.658C338.203 302.201 319.052 344.965 300.087 405.951C298.599 410.413 294.509 424.73 287.815 448.901C281.493 473.073 272.569 507.098 261.041 550.978C264.388 551.35 267.734 551.722 271.081 552.094C274.428 552.094 277.589 552.094 280.564 552.094ZM870.417 379.177C866.698 378.805 864.467 365.232 863.723 338.458C865.211 331.02 868.185 321.352 872.648 309.452C877.11 297.181 883.432 282.864 891.613 266.502C893.844 265.758 895.517 265.386 896.633 265.386C903.327 265.386 906.673 272.266 906.673 286.025C902.955 291.974 899.236 298.11 895.517 304.432C891.799 310.382 888.266 316.332 884.919 322.281C874.879 341.618 870.045 360.583 870.417 379.177ZM713.676 745.092C656.78 745.092 612.714 731.519 581.478 704.372C555.819 681.317 542.99 651.939 542.99 616.24C542.99 576.079 559.538 543.355 592.634 518.068C622.383 495.013 656.408 483.299 694.711 482.927C726.691 482.927 751.792 491.108 770.013 507.47C786.003 522.345 793.998 540.566 793.998 562.134C793.998 584.074 786.189 602.853 770.571 618.472C752.721 635.577 730.038 644.13 702.52 644.13C699.173 644.13 697.5 643.573 697.5 642.457C697.5 640.226 699.173 638.924 702.52 638.552C714.419 635.949 725.018 632.231 734.314 627.396C743.983 622.562 752.164 616.24 758.857 608.431C771.501 594.672 777.822 578.682 777.822 560.461C777.822 540.38 770.571 524.018 756.068 511.375C741.194 497.616 721.485 490.736 696.942 490.736C663.474 490.736 634.097 501.706 608.81 523.646C581.292 546.702 567.533 576.079 567.533 611.778C567.533 646.733 578.131 674.809 599.327 696.005C623.87 722.036 660.685 735.051 709.771 735.051C757.742 735.051 797.903 720.734 830.255 692.101C865.582 661.608 883.246 623.12 883.246 576.637C883.246 542.797 870.231 510.631 844.2 480.138L783.4 417.665C772.244 406.137 764.063 394.795 758.857 383.639C754.023 372.111 751.606 361.141 751.606 350.729C751.606 327.673 760.531 309.266 778.38 295.507C795.486 281.748 815.381 274.869 838.064 274.869C846.989 274.869 855.914 276.17 864.839 278.773C873.763 281.376 878.226 284.537 878.226 288.256C878.226 290.115 877.11 291.045 874.879 291.045C873.763 291.045 869.301 289.371 861.492 286.025C855.17 283.422 848.663 282.12 841.969 282.12C825.235 282.12 810.36 288.256 797.345 300.527C784.702 313.171 778.38 327.673 778.38 344.036C778.38 362.629 787.119 381.222 804.597 399.815L861.492 452.806C879.713 469.54 893.1 487.761 901.653 507.47C910.578 526.807 915.04 547.26 915.04 568.828C915.04 618.658 893.658 661.05 850.894 696.005C810.732 728.73 764.993 745.092 713.676 745.092ZM848.105 562.134C846.245 562.878 845.316 561.762 845.316 558.787C842.713 540.566 835.275 521.973 823.004 503.008C822.26 508.586 821.145 514.907 819.657 521.973C812.592 523.088 806.27 520.671 800.692 514.721C799.948 513.606 799.019 511.932 797.903 509.701C797.159 507.47 796.787 504.867 796.787 501.892V497.988C796.787 493.897 797.345 491.108 798.461 489.621C806.27 495.199 812.778 497.43 817.984 496.314C809.431 484.043 799.576 472.887 788.42 462.846C777.265 452.434 765.179 443.137 752.164 434.956C725.018 418.594 701.032 410.413 680.208 410.413C657.896 410.413 642.464 419.71 633.911 438.303C638.001 435.328 642.092 433.841 646.182 433.841C650.645 433.841 654.921 435.142 659.012 437.745C666.449 442.952 669.982 448.901 669.61 455.595C664.775 453.364 659.569 452.248 653.991 452.248C643.579 452.248 635.956 456.711 631.122 465.635C627.031 459.314 624.986 453.922 624.986 449.459C624.986 443.881 627.589 437.002 632.795 428.821C643.579 410.971 660.313 402.046 682.997 402.046C716.837 402.046 751.792 418.78 787.863 452.248C806.456 468.61 821.516 485.53 833.044 503.008C844.572 520.113 850.336 537.963 850.336 556.556V558.23C850.336 560.089 849.592 561.39 848.105 562.134Z"
        fill="white" />
</svg>