<svg width="1000" height="1000" viewBox="0 0 1000 1000" fill="none"
    xmlns="http://www.w3.org/2000/svg">
    <rect width="1000" height="1000" rx="500" fill="#7025BD" />
    <path
        d="M458.758 276.555C458.758 277.287 458.392 278.202 457.66 279.299C457.294 280.031 451.988 290.277 441.743 310.036C430.399 331.259 400.578 386.695 352.277 476.343C406.432 456.218 454.916 426.213 497.727 386.329C540.539 346.078 561.945 310.768 561.945 280.397C561.945 263.931 553.895 250.392 537.795 239.781C521.695 229.169 497.361 223.864 464.795 223.864C432.229 223.864 397.101 230.816 359.413 244.721C322.089 258.259 289.157 274.543 260.616 293.57C232.075 312.597 208.291 332.174 189.263 352.299C169.87 372.424 160.173 388.89 160.173 401.697C160.173 415.968 171.7 423.103 194.752 423.103C217.439 423.103 243.418 415.602 272.691 400.599C302.33 385.231 328.859 364.923 352.277 339.675C356.302 334.918 358.864 332.54 359.961 332.54C362.523 332.54 363.803 333.82 363.803 336.382C363.803 337.114 362.523 339.675 359.961 344.066C347.886 362.362 320.992 383.95 279.278 408.832C237.93 433.348 203.717 445.607 176.639 445.607C149.196 445.607 135.474 437.008 135.474 419.81C135.474 404.441 146.452 384.682 168.406 360.532C189.995 336.016 217.073 312.232 249.639 289.179C282.205 266.127 320.077 246.367 363.255 229.901C406.432 213.435 446.134 205.202 482.359 205.202C518.95 205.202 545.845 211.057 563.043 222.766C580.24 234.109 588.839 248.929 588.839 267.224C588.839 299.059 568.531 335.284 527.915 375.9C487.665 416.516 438.998 449.083 381.916 473.599C418.873 473.965 449.61 490.065 474.126 521.899C498.642 553.368 511.083 589.959 511.449 631.673C511.449 636.796 510.534 639.357 508.705 639.357C505.777 639.357 503.765 636.064 502.667 629.477C501.569 623.257 500.289 617.036 498.825 610.816C497.361 604.595 492.787 593.618 485.103 577.884C477.785 562.15 469.003 548.245 458.758 536.17C448.878 524.095 434.425 513.117 415.397 503.238C396.37 493.358 374.964 488.418 351.179 488.418H345.142C318.796 536.353 296.659 576.054 278.729 607.523C276.533 612.279 272.508 615.939 266.654 618.5C260.799 621.061 256.225 622.342 252.932 622.342C250.005 622.342 248.541 621.427 248.541 619.598L316.052 496.651C301.415 500.31 286.413 503.055 271.045 504.884C264.458 504.884 261.165 503.787 261.165 501.591C261.165 497.566 263.178 495.371 267.203 495.005C284.035 493.907 302.33 490.797 322.089 485.674L432.412 284.788C433.51 281.861 436.803 279.482 442.292 277.653C447.78 275.457 452.354 274.36 456.013 274.36L458.758 276.555ZM785.583 360.532C771.312 360.532 764.177 354.311 764.177 341.87C764.177 322.843 774.789 304.913 796.011 288.081C817.234 271.249 842.482 257.528 871.755 246.916C869.194 236.305 862.607 228.255 851.996 222.766C841.385 216.911 828.212 213.984 812.477 213.984C797.109 213.984 781.009 216.911 764.177 222.766C747.711 228.621 731.977 237.037 716.974 248.014C702.338 258.625 690.263 272.896 680.749 290.826C671.601 308.389 667.027 327.783 667.027 349.006C667.027 356.324 672.516 377.73 683.493 413.223C694.471 448.717 699.959 478.173 699.959 501.591C699.959 507.446 699.228 515.862 697.764 526.839C711.669 525.375 721.731 524.644 727.952 524.644C763.445 524.644 781.192 533.974 781.192 552.636C781.192 559.222 779.179 564.711 775.154 569.102C771.129 573.493 764.36 578.616 754.846 584.47C751.919 582.641 750.455 580.994 750.455 579.53C750.455 578.067 751.187 576.786 752.651 575.688C763.628 569.468 769.117 563.247 769.117 557.027C769.117 544.586 754.663 538.365 725.756 538.365C715.145 538.365 704.899 539.097 695.02 540.561C688.799 563.979 677.09 585.934 659.892 606.425C643.06 626.55 624.216 642.833 603.359 655.274C582.502 668.081 561.462 677.961 540.239 684.913C519.382 691.865 500.903 695.342 484.803 695.342C459.921 695.342 447.48 688.023 447.48 673.387C447.48 652.896 460.287 632.222 485.901 611.365C511.515 590.508 541.885 573.127 577.013 559.222C612.507 544.952 647.268 534.889 681.298 529.034C682.762 518.789 683.493 510.556 683.493 504.335C683.493 488.601 677.639 464.085 665.93 430.787C654.586 397.123 648.915 368.216 648.915 344.066C648.915 319.916 658.428 295.948 677.456 272.164C696.483 248.014 718.987 229.535 744.967 216.728C771.312 203.922 796.194 197.518 819.613 197.518C856.57 197.518 876.878 213.069 880.537 244.172C901.028 237.585 914.933 234.292 922.251 234.292C929.569 234.292 933.411 234.658 933.777 235.39C934.509 235.756 934.875 237.768 934.875 241.428C934.875 245.087 933.228 247.465 929.935 248.563C913.469 249.295 897.186 251.673 881.086 255.698C880.354 285.337 869.194 310.219 847.605 330.344C826.016 350.469 805.342 360.532 785.583 360.532ZM468.886 659.665C468.886 670.277 479.497 675.582 500.72 675.582C530.359 675.582 563.474 664.971 600.065 643.748C617.995 633.502 634.095 619.598 648.366 602.034C663.002 584.104 673.065 564.345 678.554 542.756C647.451 547.879 616.166 556.112 584.697 567.455C553.595 578.799 526.517 592.886 503.465 609.718C480.412 626.184 468.886 642.833 468.886 659.665ZM781.741 338.577C781.741 345.53 785.4 349.006 792.718 349.006C806.623 349.006 823.272 339.675 842.665 321.013C862.424 301.986 872.487 281.129 872.853 258.442C847.239 266.493 825.65 277.653 808.087 291.923C790.523 306.194 781.741 321.745 781.741 338.577Z"
        fill="white" />
</svg>